Mimi and Rodolphe's tragic love has been immortalized as a novel, a play, a Puccini opera, the inspiration for Broadway's Rent and in film - including this superb version. King Vidor (The Big Parade) directs two of the greatest stars of the silent-film era: Lillian Gish, frail and lovely as Mimi, and John Gilbert, all artistic fire as the aspiring playwright Rodolphe. Living in the Bohemian district of 1830 Paris, the two suffer through poverty, jealousy and heartbreaking separation. 

General
Complete name : La.Boheme.1926.XviD.avi
Format : AVI
Format/Info : Audio Video Interleave
File size : 1.28 GiB
Duration : 1h 33mn
Overall bit rate : 1 953 Kbps

Video
ID : 0
Format : MPEG-4 Visual
Format profile : Advanced Simple@L5
Format settings, BVOP : 2
Format settings, QPel : No
Format settings, GMC : No warppoints
Format settings, Matrix : Custom
Codec ID : XVID
Codec ID/Hint : XviD
Duration : 1h 33mn
Bit rate : 1 812 Kbps
Width : 640 pixels
Height : 480 pixels
Display aspect ratio : 4:3
Frame rate : 23.976 fps
Color space : YUV
Chroma subsampling : 4:2:0
Bit depth : 8 bits
Scan type : Progressive
Compression mode : Lossy
Bits/(Pixel*Frame) : 0.246
Stream size : 1.18 GiB (93%)
Writing library : XviD 1.2.1 (UTC 2008-12-04)

Audio
ID : 1
Format : MPEG Audio
Format version : Version 1
Format profile : Layer 3
Codec ID : 55
Codec ID/Hint : MP3
Duration : 1h 33mn
Bit rate mode : Constant
Bit rate : 128 Kbps
Channel(s) : 2 channels
Sampling rate : 48.0 KHz
Compression mode : Lossy
Stream size : 85.6 MiB (7%)
Alignment : Split accross interleaves
Interleave, duration : 24 ms (0.58 video frame)
Writing library : LAME3.98.4UUUUUUU☻[v


    
